<svg width="590" height="590" viewBox="0 0 590 590" fill="none" xmlns="http://www.w3.org/2000/svg">
<path d="M473.243 242.109C517.131 266.398 518.315 329.117 475.38 355.39L256.095 489.581C212.883 516.024 157.462 485.756 156.508 435.192L151.634 176.945C150.68 126.381 204.911 93.6064 249.084 118.053L473.243 242.109Z" fill="white"/>
<line y1="-6.55556" x2="339.273" y2="-6.55556" transform="matrix(0.895589 0.444882 -0.464281 0.885688 179.341 138.633)" stroke="#B4B4B5" stroke-width="13.1111"/>
<line y1="-6.55556" x2="339.128" y2="-6.55556" transform="matrix(0.875267 -0.483639 0.503722 0.863866 193.567 485.17)" stroke="#B4B4B5" stroke-width="13.1111"/>
<path d="M468.571 344.213L249.285 478.403C214.716 499.558 170.379 475.344 169.615 434.892L164.742 176.645C163.978 136.194 207.364 109.975 242.701 129.531L466.86 253.588C501.971 273.019 502.918 323.194 468.571 344.213Z" stroke="#0F2C4D" stroke-width="26.2223"/>
<path d="M343.449 323.883L159.801 440.648C142.531 451.629 119.966 439.556 119.578 419.128L115.304 194.038C114.916 173.61 137.004 160.523 154.676 170.71L342.598 279.034C359.636 288.856 360.1 313.297 343.449 323.883Z" fill="white" stroke="#0F2C4D" stroke-width="26.2223"/>
<g filter="url(#filter0_d_201_2)">
<path d="M252.802 298.199C257.061 300.655 257.177 306.765 253.015 309.411L187.689 350.946C183.371 353.691 177.73 350.673 177.633 345.566L176.113 265.499C176.016 260.392 181.538 257.12 185.956 259.667L252.802 298.199Z" fill="#37A6CA"/>
</g>
<ellipse cx="15.9931" cy="18.5658" rx="15.9931" ry="18.5658" transform="matrix(-0.333008 0.942924 -0.920561 -0.390598 228.73 293.544)" fill="white"/>
<path d="M199.427 318.83C188.859 317.584 181.039 308.957 181.961 299.56C182.882 290.163 192.197 283.556 202.766 284.802C213.334 286.047 221.154 294.675 220.232 304.071C219.311 313.468 209.996 320.075 199.427 318.83Z" fill="#37A6CA"/>
<path d="M271.539 78.9969C269.795 81.6995 268.918 83.8963 268.907 85.5872C268.935 87.2193 269.795 88.5277 271.487 89.5122C275.718 91.9735 279.67 91.9693 283.342 89.4994C287.075 87.0647 290.818 82.9391 294.572 77.1225C296.392 74.3024 298.751 70.2604 301.649 64.9967C304.396 59.968 306.528 56.2786 308.044 53.9285C301.577 50.1662 299.14 47.0512 300.732 44.5836C301.68 43.1148 302.548 42.286 303.334 42.0973C304.182 41.9437 305.149 42.1834 306.237 42.8163C306.902 43.2031 307.59 43.6838 308.3 44.2584C309.047 44.7742 309.603 45.1376 309.965 45.3486C311.06 46.2281 312.152 46.9843 313.24 47.6172C315.234 48.7776 317.135 49.7619 318.941 50.5701C321.193 51.7184 322.863 52.6091 323.951 53.242C326.127 54.5078 327.505 55.5925 328.086 56.496C328.727 57.4347 328.668 58.4916 327.91 59.6666C327.114 60.9004 326.212 61.5883 325.206 61.7303C324.299 61.8488 323.164 61.6738 321.804 61.2056L317.349 59.2201C314.786 63.0626 312.032 67.8448 309.088 73.5665C308.617 74.4242 307.734 76.0515 306.436 78.4483C305.177 80.7864 303.94 82.8955 302.727 84.7756C297.797 92.4135 292.325 97.3512 286.308 99.5887C280.329 101.768 274.046 100.941 267.458 97.108C263.348 94.717 260.642 91.5671 259.34 87.6583C258.137 83.7259 259.033 79.439 262.029 74.7975C262.863 73.5049 264.01 72.7581 265.47 72.5569C266.968 72.2969 268.533 72.6416 270.165 73.591C271.313 74.2591 271.943 75.1508 272.055 76.2662C272.166 77.3816 271.994 78.2918 271.539 78.9969ZM353.498 107.887C353.451 108.991 353.067 110.424 352.345 112.186C351.661 113.889 350.921 115.358 350.125 116.592C348.646 118.883 346.028 121.845 342.271 125.477C333.322 130.454 324.768 130.569 316.609 125.822C313.587 124.064 311.13 121.301 309.238 117.534C307.346 113.767 306.611 110.268 307.033 107.039C308.662 101.037 309.912 97.36 310.784 96.0087C312.301 93.6586 314.426 91.4605 317.16 89.4144C319.954 87.4034 322.793 85.9032 325.676 84.9137C327.576 84.1601 330.159 84.0869 333.425 84.6939C336.729 85.2423 339.469 86.1493 341.645 87.4151C345.876 89.8765 348.96 92.7618 350.898 96.071C352.874 99.3215 353.741 103.26 353.498 107.887ZM336.453 117.487C337.249 116.899 338.67 115.019 340.717 111.846C341.817 110.142 342.565 108.274 342.962 106.243C343.419 104.246 343.423 102.308 342.972 100.43C342.927 100.242 342.709 99.8727 342.316 99.3212C341.962 98.711 341.377 98.0071 340.562 97.2095C339.844 96.3883 338.882 95.6261 337.673 94.9228C334.288 92.9538 330.957 92.8341 327.679 94.5638C324.401 96.2934 321.681 98.8327 319.52 102.182C319.141 102.769 318.572 103.973 317.812 105.794C317.113 107.65 316.752 108.854 316.728 109.406C316.644 109.923 316.718 110.774 316.951 111.96C317.281 113.122 317.801 114.313 318.51 115.534C319.317 116.731 320.325 117.681 321.534 118.384C324.254 119.966 326.828 120.615 329.256 120.331C331.722 119.987 334.121 119.04 336.453 117.487ZM374.315 106.3C378.305 108.62 378.65 112.336 375.351 117.448C374.934 118.094 373.944 119.498 372.383 121.661C370.593 124.175 369.225 126.167 368.277 127.636C365.623 131.749 364.054 135.402 363.572 138.597C363.465 139.665 363.803 140.751 364.588 141.854C365.433 142.992 366.248 143.79 367.034 144.247C368.243 144.95 369.335 145.384 370.31 145.547C371.286 145.71 372.295 145.691 373.339 145.491C374.444 145.325 375.556 145.083 376.676 144.765C378.621 144.199 380.256 143.211 381.582 141.801C383.006 140.366 384.621 138.316 386.425 135.648C387.525 133.944 388.677 132.352 389.882 130.871C391.914 128.497 393.649 126.194 395.09 123.961C395.887 122.727 396.883 121.892 398.078 121.457C399.372 120.997 400.684 121.154 402.014 121.928C402.679 122.315 403.313 123.007 403.916 124.004C404.618 124.978 404.949 125.817 404.91 126.522C404.878 127.473 404.464 128.566 403.668 129.799C403.175 130.563 402.629 131.216 402.031 131.756C401.16 132.462 400.288 133.49 399.416 134.842C398.961 135.547 398.263 136.757 397.323 138.472C396.708 139.812 395.983 141.127 395.149 142.42C392.608 146.356 391.034 149.441 390.425 151.672C389.8 154.057 389.569 156.347 389.732 158.542C390.145 160.479 390.373 161.865 390.417 162.698C390.499 163.473 390.407 164.066 390.141 164.478C389.686 165.183 388.888 165.647 387.745 165.872C386.603 166.096 385.639 165.98 384.853 165.523C382.617 164.222 381.126 162.344 380.382 159.891C379.736 157.414 379.778 154.772 380.509 151.965C379.351 152.342 377.868 152.772 376.06 153.255C374.251 153.739 372.636 154.052 371.214 154.194C367.795 154.468 364.242 153.532 360.555 151.388C359.044 150.508 357.666 149.101 356.422 147.165C355.238 145.264 354.375 143.186 353.835 140.932C353.332 138.62 353.34 136.482 353.857 134.521C353.873 134.368 353.995 133.793 354.223 132.794C354.512 131.831 355.188 130.527 356.25 128.882L365.259 114.729C365.79 113.906 366.413 112.49 367.127 110.482C367.523 109.096 367.91 108.109 368.289 107.521C368.934 106.523 369.797 105.893 370.879 105.634C372.022 105.41 373.167 105.631 374.315 106.3ZM407.354 150.733C408.72 148.618 410.383 146.878 412.344 145.514C414.343 144.091 416.743 142.82 419.543 141.701C422.343 140.583 425.433 140.239 428.813 140.67C432.231 141.042 435.511 142.142 438.654 143.97C441.072 145.377 443.077 147.23 444.669 149.53C446.359 151.806 447.655 154.177 448.559 156.641C448.535 157.193 448.465 158.203 448.349 159.671C448.271 161.08 448.069 162.296 447.742 163.318C447.475 164.375 447.038 165.374 446.432 166.314C443.891 170.25 440.704 172.032 436.87 171.661C433.074 171.23 428.91 169.697 424.377 167.06C419.844 164.422 416.346 161.984 413.884 159.744C413.285 160.93 412.867 162.222 412.63 163.62C412.393 165.018 412.417 166.204 412.703 167.178C413.191 168.997 413.896 170.418 414.817 171.438C415.836 172.435 417.343 173.514 419.338 174.674C422.36 176.432 425.077 177.245 427.49 177.114C429.706 177.029 431.237 177.233 432.084 177.725C433.232 178.393 433.881 179.256 434.03 180.312C434.218 181.31 433.97 182.338 433.288 183.395C431.847 185.628 429.19 186.588 425.319 186.275C421.508 185.997 417.758 184.786 414.071 182.641C411.17 180.953 408.621 178.784 406.425 176.132C404.229 173.481 402.872 170.752 402.356 167.947C402.42 165.398 402.872 162.509 403.709 159.279C404.547 156.049 405.762 153.2 407.354 150.733ZM434.353 151.408C433.023 150.634 431.482 150.061 429.728 149.687C428.072 149.289 426.567 149.303 425.212 149.727C423.601 150.163 422.288 150.652 421.273 151.193C420.319 151.77 419.384 152.64 418.467 153.803C419.132 154.19 419.747 154.588 420.314 154.999C420.88 155.409 421.417 155.802 421.923 156.177C424.43 157.959 426.349 159.237 427.679 160.011C430.338 161.558 432.61 162.354 434.493 162.399C436.436 162.479 437.825 161.873 438.659 160.58C439.456 159.346 439.36 157.755 438.373 155.807C437.446 153.894 436.106 152.428 434.353 151.408ZM456.409 165.814C455.925 165.533 455.586 165.093 455.39 164.494C455.293 163.872 455.415 163.297 455.756 162.768C456.628 161.417 458.048 160.505 460.015 160.033C460.491 160.068 461.406 160.196 462.76 160.418C464.113 160.639 465.213 160.996 466.059 161.489C468.356 162.825 469.831 164.532 470.486 166.609C471.178 168.628 470.804 170.754 469.363 172.987C468.946 173.633 467.934 174.943 466.327 176.918C464.493 179.245 463.14 181.084 462.267 182.435C459.613 186.548 458.045 190.201 457.563 193.396C457.455 194.465 457.703 195.498 458.306 196.495C458.91 197.493 459.574 198.202 460.299 198.624C462.052 199.644 463.662 200.176 465.129 200.222C466.596 200.267 468.382 200.013 470.485 199.459C472.589 198.904 474.353 197.91 475.777 196.476C477.262 195.077 479.024 192.991 481.063 190.218C482.397 188.408 483.409 187.097 484.099 186.287C486.221 183.642 487.927 181.321 489.216 179.324C490.05 178.031 491.095 177.184 492.352 176.784C493.646 176.325 494.927 176.464 496.197 177.202C496.922 177.624 497.586 178.334 498.189 179.332C498.891 180.305 499.203 181.174 499.127 181.937C499.11 182.736 498.666 183.811 497.794 185.162C497.339 185.867 496.812 186.49 496.213 187.031C494.842 188.253 493.493 189.893 492.166 191.949L489.299 196.585C486.607 200.756 484.919 204.017 484.234 206.366C483.929 207.482 483.727 208.697 483.626 210.012C483.564 211.269 483.565 212.361 483.632 213.289C484.007 215.284 484.205 216.652 484.226 217.392C484.285 218.073 484.163 218.648 483.86 219.118C483.405 219.823 482.606 220.288 481.464 220.513C480.42 220.713 479.505 220.585 478.719 220.128C476.483 218.827 475.023 216.967 474.339 214.549C473.655 212.131 473.678 209.518 474.409 206.711C470.875 207.807 467.777 208.55 465.114 208.94C463.374 209.06 461.495 208.815 459.477 208.207C457.497 207.54 455.63 206.696 453.877 205.677C451.52 204.305 449.739 201.976 448.535 198.69C447.331 195.403 447.102 192.28 447.848 189.32C447.863 189.167 447.985 188.592 448.214 187.594C448.503 186.63 449.178 185.326 450.24 183.681C451.643 181.507 453.527 178.846 455.892 175.696C457.439 173.686 458.781 171.8 459.918 170.038C460.259 169.509 460.332 168.945 460.137 168.347C460.001 167.783 459.692 167.361 459.209 167.079C458.846 166.868 458.385 166.681 457.825 166.517C457.364 166.33 456.892 166.096 456.409 165.814ZM504.77 229.949C504.126 230.948 503.164 231.601 501.885 231.908C500.607 232.214 499.393 232.034 498.245 231.366C496.431 230.311 495.31 229.214 494.881 228.075C494.49 226.878 494.882 225.369 496.057 223.547C497.46 221.374 499.239 218.489 501.393 214.893C503.168 211.885 504.7 209.383 505.989 207.385C506.596 206.445 507.453 205.246 508.56 203.789C509.591 202.449 510.333 201.427 510.788 200.722C511.328 199.5 511.462 198.326 511.192 197.199C510.959 196.013 510.269 195.086 509.121 194.418C508.577 194.102 508.275 193.603 508.216 192.922C508.194 192.182 508.354 191.548 508.695 191.019C509.567 189.668 510.775 188.956 512.318 188.884C513.921 188.847 515.509 189.286 517.08 190.2C520.344 192.099 521.397 195.297 520.24 199.796C522.949 198.947 525.642 198.575 528.319 198.677C531.095 198.757 533.419 199.341 535.293 200.431C537.529 201.732 539.175 203.498 540.23 205.728C541.345 207.993 541.258 210.124 539.969 212.122C539.249 213.238 537.996 214.085 536.21 214.662C534.484 215.274 533.108 215.282 532.08 214.684C531.536 214.368 531.129 213.969 530.857 213.488C530.684 212.983 530.496 212.308 530.294 211.463C530.068 210.524 529.82 209.813 529.549 209.332C529.315 208.792 528.926 208.364 528.382 208.048C527.415 207.485 526.414 207.105 525.378 206.906C524.342 206.708 523.541 206.726 522.973 206.962C521.058 207.868 519.479 208.768 518.238 209.662C517.056 210.591 516.029 211.731 515.157 213.082C514.513 214.081 513.97 214.856 513.531 215.409L510.198 220.379C509.705 221.143 509.186 222.013 508.64 222.988C508.093 223.963 507.699 224.703 507.456 225.208C506.613 226.9 505.718 228.481 504.77 229.949Z" fill="#F3F3F3"/>
<defs>
<filter id="filter0_d_201_2" x="163.001" y="258.784" width="106.178" height="119.422" filterUnits="userSpaceOnUse" color-interpolation-filters="sRGB">
<feFlood flood-opacity="0" result="BackgroundImageFix"/>
<feColorMatrix in="SourceAlpha" type="matrix" values="0 0 0 0 0 0 0 0 0 0 0 0 0 0 0 0 0 0 127 0" result="hardAlpha"/>
<feOffset dy="13.1111"/>
<feGaussianBlur stdDeviation="6.55556"/>
<feComposite in2="hardAlpha" operator="out"/>
<feColorMatrix type="matrix" values="0 0 0 0 0 0 0 0 0 0 0 0 0 0 0 0 0 0 0.25 0"/>
<feBlend mode="normal" in2="BackgroundImageFix" result="effect1_dropShadow_201_2"/>
<feBlend mode="normal" in="SourceGraphic" in2="effect1_dropShadow_201_2" result="shape"/>
</filter>
</defs>
</svg>
