<svg width="178" height="187" viewBox="0 0 178 187" fill="none" xmlns="http://www.w3.org/2000/svg">
<path d="M143.9 77.6066C156.761 85.1035 157.092 103.59 144.511 111.699L77.8563 154.661C64.6803 163.154 47.3834 153.978 47.1033 138.348L45.6219 55.6681C45.3418 40.0377 62.2952 30.0379 75.764 37.8891L143.9 77.6066Z" fill="white"/>
<line y1="-2" x2="103.192" y2="-2" transform="matrix(0.886049 0.463592 -0.445557 0.895253 53.967 43.9396)" stroke="#B4B4B5" stroke-width="4"/>
<line y1="-2" x2="103.347" y2="-2" transform="matrix(0.86428 -0.503011 0.48434 0.87488 58.2478 153.774)" stroke="#B4B4B5" stroke-width="4"/>
<path d="M142.359 108.34L75.7045 151.302C65.1637 158.096 51.3262 150.756 51.1021 138.252L49.6207 55.5719C49.3967 43.0675 62.9594 35.0677 73.7344 41.3486L141.87 81.0662C152.159 87.0637 152.424 101.853 142.359 108.34Z" stroke="#0F2C4D" stroke-width="8"/>
<path d="M104.092 102.272L48.4626 139.526C43.2 143.051 36.1557 139.393 36.0419 133.077L34.7473 61.2623C34.6335 54.9464 41.5399 50.9552 46.925 54.2247L103.849 88.7858C108.834 91.8124 108.964 99.01 104.092 102.272Z" fill="white" stroke="#0F2C4D" stroke-width="8"/>
<g filter="url(#filter0_d_160_24)">
<path d="M76.2167 94.6015C77.4629 95.3582 77.4954 97.1576 76.2775 97.9732L56.5588 111.178C55.2431 112.06 53.482 111.145 53.4536 109.566L52.9947 84.1102C52.9662 82.5312 54.6928 81.5334 56.0391 82.3508L76.2167 94.6015Z" fill="#37A6CA"/>
</g>
<ellipse cx="5.04122" cy="5.63319" rx="5.04122" ry="5.63319" transform="matrix(-0.317907 0.948122 -0.912974 -0.408017 68.8291 93.0383)" fill="white"/>
<path d="M60.0111 101.053C56.8308 100.658 54.4777 97.9234 54.7551 94.9452C55.0325 91.9669 57.8355 89.8727 61.0157 90.2675C64.196 90.6624 66.5492 93.3968 66.2718 96.375C65.9943 99.3533 63.1913 101.448 60.0111 101.053Z" fill="#37A6CA"/>
<path d="M81.6979 25.0501C81.1852 25.8868 80.9301 26.5686 80.9325 27.0955C80.946 27.6042 81.2075 28.0146 81.7168 28.3267C82.9901 29.1069 84.1718 29.1179 85.2619 28.3597C86.3701 27.6126 87.476 26.3387 88.5794 24.5379C89.1144 23.6647 89.8066 22.4126 90.656 20.7813C91.4608 19.2228 92.0861 18.0798 92.5319 17.3522C90.5856 16.1596 89.8464 15.1813 90.3146 14.4173C90.5932 13.9626 90.8499 13.707 91.0846 13.6507C91.3374 13.6055 91.6276 13.6832 91.955 13.8838C92.1551 14.0064 92.3622 14.1583 92.5764 14.3396C92.8017 14.5027 92.969 14.6177 93.0781 14.6845C93.4085 14.962 93.7374 15.2011 94.0648 15.4017C94.6651 15.7695 95.2366 16.0822 95.7794 16.3397C96.4565 16.7045 96.9588 16.9873 97.2862 17.1879C97.9411 17.5891 98.3568 17.9315 98.5334 18.2148C98.7283 18.5093 98.7142 18.8385 98.4913 19.2023C98.2573 19.5843 97.99 19.7959 97.6896 19.837C97.4186 19.871 97.0788 19.813 96.6705 19.6628L95.3317 19.0302C94.5779 20.2196 93.7702 21.7012 92.9085 23.475C92.7706 23.7408 92.5117 24.2452 92.1315 24.988C91.7626 25.7127 91.3998 26.3661 91.0431 26.9482C89.5942 29.3129 87.9738 30.8345 86.182 31.513C84.4013 32.1733 82.5196 31.896 80.5369 30.6811C79.2999 29.9232 78.4804 28.9332 78.0784 27.7111C77.7056 26.4819 77.9595 25.1488 78.84 23.7118C79.0852 23.3116 79.4258 23.0824 79.8618 23.0243C80.3088 22.948 80.7779 23.0603 81.2691 23.3612C81.6147 23.573 81.806 23.8528 81.843 24.2008C81.88 24.5487 81.8317 24.8318 81.6979 25.0501ZM106.302 34.3085C106.291 34.6524 106.181 35.0977 105.971 35.6446C105.772 36.1733 105.556 36.6286 105.322 37.0106C104.887 37.72 104.114 38.6348 103.002 39.755C100.343 41.278 97.785 41.2871 95.3293 39.7824C94.4198 39.2251 93.676 38.3566 93.0979 37.1767C92.5198 35.9968 92.2885 34.9044 92.4039 33.8993C92.8713 32.034 93.2332 30.8922 93.4896 30.4738C93.9354 29.7462 94.5637 29.0678 95.3745 28.4387C96.2035 27.8208 97.0474 27.3622 97.9064 27.0628C98.472 26.8339 99.2441 26.8192 100.223 27.0185C101.213 27.1997 102.035 27.4909 102.69 27.8922C103.963 28.6724 104.895 29.5811 105.485 30.6184C106.087 31.6375 106.359 32.8675 106.302 34.3085ZM101.236 37.247C101.472 37.0662 101.891 36.4847 102.493 35.5024C102.816 34.9749 103.034 34.3952 103.146 33.7633C103.276 33.1425 103.27 32.5387 103.13 31.952C103.115 31.8934 103.049 31.7775 102.93 31.6044C102.822 31.4131 102.645 31.192 102.398 30.9409C102.181 30.6827 101.89 30.4422 101.527 30.2193C100.508 29.5951 99.5114 29.5474 98.5369 30.0762C97.5624 30.605 96.7575 31.3878 96.1222 32.4246C96.0107 32.6065 95.8445 32.98 95.6233 33.5451C95.4204 34.1213 95.3163 34.4953 95.311 34.6672C95.2876 34.828 95.3125 35.0935 95.3859 35.4637C95.4887 35.8269 95.648 36.1998 95.864 36.5823C96.1093 36.9578 96.4138 37.257 96.7776 37.4799C97.5962 37.9814 98.3681 38.1917 99.0933 38.1106C99.8296 38.0114 100.544 37.7235 101.236 37.247ZM112.522 33.8789C113.722 34.6145 113.838 35.7736 112.868 37.3561C112.745 37.5562 112.454 37.9907 111.994 38.6596C111.467 39.4377 111.065 40.0541 110.786 40.5089C110.006 41.7822 109.549 42.9158 109.415 43.9098C109.387 44.2425 109.491 44.5819 109.73 44.928C109.986 45.2853 110.232 45.5364 110.469 45.6813C110.833 45.9042 111.161 46.0427 111.453 46.0966C111.745 46.1505 112.047 46.1479 112.359 46.0886C112.688 46.0404 113.02 45.9685 113.354 45.8728C113.934 45.7026 114.419 45.3998 114.811 44.9644C115.233 44.5219 115.709 43.8879 116.239 43.0623C116.563 42.5348 116.902 42.0422 117.258 41.5845C117.857 40.851 118.369 40.1386 118.792 39.4474C119.026 39.0654 119.321 38.8083 119.677 38.6763C120.063 38.5372 120.456 38.5902 120.856 38.8354C121.056 38.958 121.248 39.1757 121.432 39.4884C121.645 39.7941 121.746 40.0566 121.737 40.2761C121.731 40.5724 121.61 40.9115 121.376 41.2935C121.232 41.53 121.07 41.7315 120.893 41.8982C120.635 42.1153 120.378 42.4331 120.122 42.8514C119.988 43.0697 119.783 43.4447 119.507 43.9763C119.328 44.3917 119.116 44.7995 118.87 45.1997C118.124 46.4185 117.663 47.3746 117.488 48.0682C117.309 48.8092 117.248 49.5221 117.304 50.2068C117.433 50.8117 117.506 51.2442 117.522 51.5041C117.549 51.7458 117.523 51.9303 117.445 52.0577C117.312 52.276 117.074 52.4183 116.733 52.4846C116.393 52.551 116.104 52.5117 115.867 52.3668C115.194 51.9544 114.743 51.3648 114.512 50.5979C114.311 49.8241 114.315 49.0009 114.524 48.1284C114.179 48.2422 113.737 48.3717 113.198 48.5167C112.658 48.6617 112.176 48.7541 111.752 48.7941C110.73 48.8687 109.665 48.5661 108.555 47.8862C108.1 47.6076 107.684 47.1646 107.305 46.5574C106.945 45.9613 106.68 45.3113 106.511 44.6072C106.353 43.8849 106.348 43.219 106.497 42.6094C106.501 42.5618 106.535 42.3829 106.6 42.0725C106.684 41.7732 106.881 41.369 107.193 40.8596L109.841 36.4773C109.997 36.2226 110.179 35.7834 110.386 35.1597C110.5 34.729 110.612 34.4227 110.724 34.2408C110.913 33.9316 111.169 33.7382 111.492 33.6607C111.833 33.5944 112.176 33.6671 112.522 33.8789ZM122.548 47.8282C122.949 47.1733 123.44 46.6364 124.022 46.2174C124.616 45.7802 125.329 45.3917 126.163 45.0519C126.996 44.7121 127.919 44.6146 128.932 44.7593C129.955 44.886 130.939 45.239 131.885 45.8186C132.613 46.2645 133.218 46.8482 133.702 47.5698C134.215 48.2844 134.61 49.0271 134.889 49.7981C134.883 49.97 134.866 50.2845 134.836 50.7416C134.817 51.1804 134.761 51.5586 134.666 51.876C134.59 52.2046 134.463 52.5144 134.284 52.8055C133.538 54.0242 132.59 54.5697 131.443 54.4419C130.306 54.296 129.056 53.805 127.692 52.9691C126.327 52.1332 125.273 51.3624 124.53 50.6566C124.355 51.0245 124.234 51.4258 124.168 51.8606C124.101 52.2954 124.112 52.6651 124.201 52.9696C124.353 53.5381 124.569 53.9828 124.847 54.3037C125.155 54.6176 125.61 54.9584 126.21 55.3262C127.119 55.8835 127.935 56.1454 128.656 56.1119C129.318 56.0924 129.777 56.1607 130.031 56.3167C130.377 56.5285 130.574 56.7993 130.622 57.129C130.681 57.4406 130.611 57.76 130.41 58.0875C129.986 58.7787 129.195 59.0695 128.036 58.9599C126.896 58.8615 125.771 58.4724 124.661 57.7925C123.788 57.2575 123.019 56.5734 122.353 55.7404C121.688 54.9073 121.273 54.0527 121.109 53.1768C121.12 52.3829 121.246 51.484 121.486 50.4801C121.726 49.4761 122.08 48.5922 122.548 47.8282ZM130.624 48.1229C130.223 47.8777 129.76 47.6941 129.235 47.5721C128.738 47.4431 128.288 47.4426 127.885 47.5705C127.404 47.7014 127.013 47.8496 126.711 48.0151C126.428 48.1918 126.151 48.4599 125.881 48.8197C126.081 48.9423 126.266 49.0684 126.437 49.198C126.608 49.3277 126.769 49.4517 126.922 49.5703C127.678 50.1334 128.256 50.5376 128.656 50.7828C129.456 51.2732 130.138 51.5284 130.701 51.5483C131.283 51.5793 131.696 51.3947 131.941 50.9945C132.175 50.6125 132.142 50.1164 131.84 49.5063C131.557 48.9072 131.151 48.4461 130.624 48.1229ZM137.266 52.681C137.121 52.5919 137.018 52.4537 136.957 52.2665C136.926 52.0723 136.961 51.8934 137.061 51.7296C137.317 51.3113 137.739 51.0316 138.326 50.8908C138.468 50.9031 138.742 50.9459 139.148 51.0191C139.553 51.0924 139.883 51.2071 140.138 51.3631C140.829 51.7867 141.276 52.3232 141.479 52.9727C141.692 53.604 141.587 54.2652 141.164 54.9565C141.041 55.1566 140.743 55.5617 140.269 56.172C139.728 56.8914 139.329 57.4603 139.073 57.8787C138.293 59.152 137.836 60.2856 137.702 61.2796C137.673 61.6123 137.751 61.935 137.935 62.2477C138.118 62.5604 138.319 62.7836 138.538 62.9174C139.065 63.2406 139.548 63.4116 139.987 63.4303C140.426 63.449 140.959 63.3753 141.586 63.2092C142.213 63.043 142.738 62.7388 143.159 62.2963C143.598 61.865 144.118 61.2204 144.719 60.3625C145.112 59.8027 145.41 59.3975 145.614 59.147C146.24 58.3296 146.742 57.6116 147.121 56.9932C147.367 56.593 147.676 56.3324 148.051 56.2115C148.436 56.0724 148.82 56.1199 149.202 56.354C149.42 56.4877 149.621 56.7109 149.805 57.0236C150.018 57.3293 150.114 57.6009 150.094 57.8386C150.091 58.0874 149.962 58.4209 149.706 58.8393C149.572 59.0576 149.416 59.2501 149.239 59.4167C148.833 59.7935 148.435 60.3001 148.045 60.9368L147.203 62.3724C146.412 63.6639 145.917 64.6746 145.72 65.4045C145.633 65.7513 145.576 66.1294 145.551 66.539C145.536 66.9303 145.54 67.2706 145.563 67.5599C145.682 68.183 145.745 68.6098 145.754 68.8404C145.774 69.0528 145.74 69.2318 145.651 69.3773C145.517 69.5956 145.279 69.7379 144.939 69.8042C144.627 69.8635 144.353 69.8208 144.117 69.6759C143.443 69.2635 143.001 68.6794 142.788 67.9237C142.576 67.168 142.574 66.3539 142.784 65.4814C141.73 65.8119 140.806 66.0338 140.011 66.1472C139.491 66.1789 138.929 66.0968 138.323 65.9009C137.729 65.6868 137.168 65.4182 136.64 65.095C135.931 64.6603 135.391 63.929 135.02 62.9011C134.649 61.8732 134.57 60.8992 134.784 59.9792C134.788 59.9316 134.822 59.7527 134.887 59.4423C134.971 59.143 135.168 58.7387 135.48 58.2294C135.893 57.5564 136.447 56.7328 137.144 55.7588C137.6 55.1373 137.995 54.5538 138.33 54.0081C138.43 53.8444 138.45 53.6689 138.389 53.4818C138.347 53.3058 138.253 53.1732 138.108 53.084C137.999 53.0171 137.86 52.9573 137.692 52.9045C137.554 52.8447 137.412 52.7702 137.266 52.681ZM151.939 72.8177C151.75 73.1269 151.464 73.3273 151.083 73.4189C150.701 73.5105 150.338 73.4504 149.992 73.2386C149.447 72.9042 149.108 72.559 148.976 72.2029C148.855 71.8285 148.967 71.3594 149.313 70.7955C149.725 70.1225 150.247 69.2291 150.88 68.1154C151.401 67.1836 151.851 66.4085 152.23 65.79C152.408 65.499 152.66 65.1281 152.986 64.6775C153.29 64.2632 153.509 63.9469 153.643 63.7286C153.8 63.3496 153.836 62.984 153.752 62.632C153.678 62.2618 153.469 61.9708 153.123 61.759C152.959 61.6587 152.868 61.5024 152.848 61.29C152.839 61.0594 152.885 60.8622 152.985 60.6985C153.241 60.2801 153.6 60.0621 154.061 60.0445C154.541 60.0379 155.017 60.1796 155.49 60.4694C156.472 61.0712 156.797 62.0713 156.466 63.4695C157.273 63.2136 158.077 63.1058 158.878 63.1462C159.709 63.1796 160.406 63.369 160.97 63.7145C161.643 64.1269 162.141 64.6822 162.463 65.3804C162.804 66.0897 162.785 66.7536 162.406 67.372C162.195 67.7177 161.823 67.9776 161.29 68.152C160.777 68.3374 160.365 68.3354 160.056 68.146C159.892 68.0456 159.769 67.9201 159.686 67.7693C159.633 67.6115 159.574 67.4006 159.511 67.1365C159.44 66.8432 159.364 66.6211 159.281 66.4703C159.209 66.3014 159.092 66.1667 158.928 66.0664C158.637 65.8881 158.336 65.7664 158.026 65.7013C157.715 65.6362 157.476 65.6394 157.307 65.711C156.737 65.9875 156.268 66.263 155.9 66.5376C155.549 66.8234 155.246 67.1755 154.99 67.5939C154.8 67.9031 154.641 68.1431 154.511 68.3139L153.531 69.8524C153.386 70.0889 153.233 70.3582 153.073 70.6604C152.913 70.9626 152.798 71.192 152.727 71.3487C152.48 71.8733 152.218 72.3629 151.939 72.8177Z" fill="#0F2C4D"/>
<defs>
<filter id="filter0_d_160_24" x="48.9944" y="82.0587" width="32.177" height="37.463" filterUnits="userSpaceOnUse" color-interpolation-filters="sRGB">
<feFlood flood-opacity="0" result="BackgroundImageFix"/>
<feColorMatrix in="SourceAlpha" type="matrix" values="0 0 0 0 0 0 0 0 0 0 0 0 0 0 0 0 0 0 127 0" result="hardAlpha"/>
<feOffset dy="4"/>
<feGaussianBlur stdDeviation="2"/>
<feComposite in2="hardAlpha" operator="out"/>
<feColorMatrix type="matrix" values="0 0 0 0 0 0 0 0 0 0 0 0 0 0 0 0 0 0 0.25 0"/>
<feBlend mode="normal" in2="BackgroundImageFix" result="effect1_dropShadow_160_24"/>
<feBlend mode="normal" in="SourceGraphic" in2="effect1_dropShadow_160_24" result="shape"/>
</filter>
</defs>
</svg>
